<svg width="38" height="40" viewBox="0 0 38 40" fill="none" xmlns="http://www.w3.org/2000/svg">
<path fill-rule="evenodd" clip-rule="evenodd" d="M2.92969 17.2852C2.92969 8.39844 4.58984 2.92969 18.6523 2.92969C32.7148 2.92969 34.375 8.39844 34.375 17.2852C34.375 26.1719 32.7148 31.6406 18.6523 31.6406L16.1133 31.543L10.9375 37.6953C10.5469 38.0859 10.1562 37.793 10.1562 37.4023V30.6641C9.57031 30.6641 7.12891 29.4922 6.44531 28.8086C4.29688 26.5625 2.92969 24.9023 2.92969 17.2852ZM0 17.2852C0 4.98047 5.37109 0 18.6523 0C31.9336 0 37.3047 4.98047 37.3047 17.2852C37.3047 29.5898 31.9336 34.5703 18.6523 34.5703C17.6758 34.5703 16.8945 34.5703 15.5273 34.375L11.8164 38.5742C11.1328 39.3555 9.08203 39.6484 9.08203 37.3047V33.2031C8.49609 33.2031 7.12891 32.6172 5.27344 31.4453C3.41797 30.1758 0 27.1484 0 17.2852ZM21.7773 21.3867C22.4284 20.5404 23.2096 20.4102 24.1211 20.9961L27.6367 23.6328C28.1576 24.2839 27.9297 25.1953 26.9531 26.3672C25.9766 27.5391 25.0651 28.0273 24.2188 27.832C20.7682 27.0508 17.4479 25.0977 14.2578 21.9727C11.0677 18.8477 9.08203 15.4622 8.30078 11.8164C8.30078 10.5143 9.11458 9.40755 10.7422 8.49609C11.5885 7.91016 12.3047 8.07292 12.8906 8.98438L15.332 12.4023C15.7227 13.1836 15.4948 13.8997 14.6484 14.5508C10.8398 16.0156 19.6289 25.4883 21.7773 21.3867Z" fill="#F5F2EB"/>
</svg>
